<svg width="621" height="703" fill="none" xmlns="http://www.w3.org/2000/svg"><g opacity=".4" filter="url(#filter0_b_83_56)"><path d="M286.5 6.856a48 48 0 0148 0l262.47 151.538a48 48 0 0124 41.569v303.074a48 48 0 01-24 41.569L334.5 696.144a48.002 48.002 0 01-48 0L24.03 544.606a47.999 47.999 0 01-24-41.569V199.963a47.999 47.999 0 0124-41.569L286.5 6.856z" fill="#00A1FF" fill-opacity=".1"/><path d="M287.5 8.588a46 46 0 0146 0l262.47 151.538a45.999 45.999 0 0123 39.837v303.074a45.999 45.999 0 01-23 39.837L333.5 694.412a46 46 0 01-46 0L25.03 542.874a46 46 0 01-23-39.837V199.963a46 46 0 0123-39.837L287.5 8.588z" stroke="url(#paint0_linear_83_56)" stroke-width="4"/></g><defs><linearGradient id="paint0_linear_83_56" x1="310.5" y1="-7" x2="310.5" y2="710" gradientUnits="userSpaceOnUse"><stop stop-color="#00B7FC"/><stop offset="1" stop-color="#FFA9F3"/></linearGradient><filter id="filter0_b_83_56" x="-23.97" y="-23.574" width="668.94" height="750.148" filterUnits="userSpaceOnUse" color-interpolation-filters="sRGB"><feFlood flood-opacity="0" result="BackgroundImageFix"/><feGaussianBlur in="BackgroundImage" stdDeviation="12"/><feComposite in2="SourceAlpha" operator="in" result="effect1_backgroundBlur_83_56"/><feBlend in="SourceGraphic" in2="effect1_backgroundBlur_83_56" result="shape"/></filter></defs></svg>