<svg width="621" height="703" fill="none" xmlns="http://www.w3.org/2000/svg"><g opacity=".4"><path d="M286.5 6.856a48 48 0 0148 0l262.47 151.538a48 48 0 0124 41.569v303.074a48 48 0 01-24 41.569L334.5 696.144a48.002 48.002 0 01-48 0L24.03 544.606a47.999 47.999 0 01-24-41.569V199.963a47.999 47.999 0 0124-41.569L286.5 6.856z" fill="#D3A7A7" fill-opacity=".1"/><path d="M287.5 8.588a46 46 0 0146 0l262.47 151.538a45.999 45.999 0 0123 39.837v303.074a45.999 45.999 0 01-23 39.837L333.5 694.412a46 46 0 01-46 0L25.03 542.874a46 46 0 01-23-39.837V199.963a46 46 0 0123-39.837L287.5 8.588z" stroke="url(#paint0_linear_329_2)" stroke-width="4"/></g><defs><linearGradient id="paint0_linear_329_2" x1="310.5" y1="-7" x2="310.5" y2="710" gradientUnits="userSpaceOnUse"><stop stop-color="#EE792F"/><stop offset="1" stop-color="#F58AF0"/></linearGradient></defs></svg>