<svg width="983" height="153" fill="none" xmlns="http://www.w3.org/2000/svg"><path fill-rule="evenodd" clip-rule="evenodd" d="M48.56 150H.976V39.056h47.2v13.675c6.69-6.961 19.59-16.363 39.856-16.363h1.344c20.172 0 32.804 8.841 39.688 20.037 8.849-9.889 23.787-20.037 45.56-20.037h1.536c17.374 0 29.199 5.796 36.649 14.42 7.404 8.57 10.279 19.689 10.279 30.012V150h-47.584V92.704c0-5.063-1.314-9.877-4.3-13.393-2.938-3.458-7.712-5.919-15.204-5.919-7.061 0-12.053 2.525-15.307 6.312-3.293 3.83-4.965 9.14-4.965 14.92V150H88.336V92.704c0-5.078-1.273-9.89-4.233-13.399-2.908-3.448-7.676-5.913-15.271-5.913-7.096 0-12.08 2.405-15.318 6.108-3.274 3.745-4.954 9.04-4.954 15.124V150zm81.563-91.773c-.482.55-.944 1.1-1.387 1.645a41.035 41.035 0 00-1.047-1.875c-6.446-10.864-18.513-19.629-38.313-19.629h-1.344c-21.163 0-33.965 10.6-39.856 17.318-.79.9-1.455 1.732-2 2.458V41.056h-43.2V148H46.56V94.624c0-12.864 7.104-23.232 22.272-23.232 16.128 0 21.504 10.56 21.504 21.312V148h43.392V94.624c0-12.288 7.104-23.232 22.272-23.232 15.936 0 21.504 10.56 21.504 21.312V148h43.584V80.8c0-19.968-11.136-42.432-44.928-42.432h-1.536c-21.441 0-36.003 10.145-44.501 19.858zm201.864 53.597h48.888l-.153 2.143c-.408 5.719-2.563 15.514-12.286 23.84-9.686 8.296-26.593 14.881-55.949 14.881h-7.871c-28.476 0-46.353-7.635-57.095-18.754-10.725-11.102-14.025-25.357-14.025-37.966V93.28c0-12.588 3.145-26.833 13.471-37.938 10.354-11.135 27.618-18.782 55.153-18.782h8.448c29.505 0 47.309 7.672 57.671 19.626 10.315 11.9 12.873 27.621 12.873 42.854v5.84h-98.408c1.159 4.551 3.26 8.254 6.785 10.957 4.151 3.183 10.566 5.203 20.502 5.203 9.567 0 14.717-1.785 17.526-3.575 2.498-1.591 3.306-3.269 3.788-4.268.045-.096.088-.185.13-.267l.552-1.106zm-51.342-6.944a34.492 34.492 0 01-.413-2h98.88v-3.84c0-30.144-10.177-60.48-68.544-60.48h-8.448c-54.336 0-66.624 30.144-66.624 54.72v2.688c0 24.576 12.863 54.72 69.12 54.72h7.871c54.83 0 64.465-23.194 66.035-34.864.096-.712.161-1.382.206-2h-45.504l-.127.259c-1.079 2.24-4.315 8.957-23.106 8.957-19.191 0-26.773-7.341-29.346-18.16zm45.799-33.195c-3.254-2.903-9.118-5.205-19.525-5.205-8.503 0-14.015 1.686-17.619 4.378-2.969 2.218-4.835 5.265-5.95 9.094h47.192c-.329-2.998-1.472-5.926-4.098-8.267zm6.108 8.267c-.74-7.54-6.064-15.472-25.633-15.472-16.343 0-23.11 6.048-25.645 15.472-.175.65-.33 1.318-.467 2h51.84c0-.66-.029-1.328-.095-2zM486.115.656h47.584V150h-47.584v-10.455c-6.098 5.278-18.263 12.567-38.704 12.567h-2.304c-20.924 0-35.661-6.994-45.146-17.586-9.447-10.549-13.494-24.455-13.494-37.982v-3.84c0-13.31 3.794-27.26 13.068-37.913 9.318-10.704 23.969-17.847 45.188-17.847h2.304c21.019 0 32.817 6.242 39.088 10.543V.656zm2 50.768l-.058-.044c-.556-.423-1.2-.912-1.942-1.448-5.716-4.125-17.255-10.988-39.088-10.988h-2.304c-41.472 0-56.256 27.84-56.256 53.76v3.84c0 26.304 15.744 53.568 56.64 53.568h2.304c21.522 0 33.479-8.279 38.704-13.268a30.26 30.26 0 002-2.092V148h43.584V2.656h-43.584v48.768zm-7.088 27.196c-3.694-4.316-9.728-7.532-19.216-7.532h-1.92c-9.967 0-15.927 3.357-19.445 7.706-3.581 4.427-4.859 10.166-4.859 15.254v.576c0 4.773 1.314 10.58 4.942 15.148 3.563 4.486 9.534 8.004 19.362 8.004h1.92c9.469 0 15.505-3.298 19.207-7.689 3.755-4.454 5.289-10.248 5.289-15.463v-.576c0-5.315-1.536-11.052-5.28-15.428zm206.656-39.564V150h-47.2v-13.637c-7.065 6.959-21.133 16.325-41.968 16.325h-1.92c-16.203 0-27.987-5.3-35.715-13.36-7.703-8.032-11.213-18.633-11.213-28.96V39.056h47.584v56.528c0 5.534 1.452 10.519 4.651 14.099 3.162 3.539 8.277 5.981 16.197 5.981 7.493 0 12.935-2.513 16.514-6.348 3.601-3.86 5.486-9.245 5.486-15.268V39.056h47.584zm-47.2 94.433a31.043 31.043 0 002-2.385V148h43.2V41.056h-43.584v52.992c0 12.864-8.064 23.616-24 23.616-16.704 0-22.848-10.368-22.848-22.08V41.056h-43.584v69.312c0 19.776 13.44 40.32 44.928 40.32h1.92c21.741 0 35.819-10.518 41.968-17.199zm138.118-54.88h.002c20.367.773 33.626 4.247 41.82 10.144 8.373 6.025 11.176 14.36 11.176 23.919v1.728c0 9.156-2.109 18.917-11.73 26.262-9.46 7.221-25.849 11.834-53.63 11.834h-5.184c-28.744 0-44.692-6.186-53.45-14.152-8.817-8.021-9.99-17.514-9.99-23.176V112.4h50.334l.292 1.652c.255 1.447.753 3.417 2.84 5.105 2.143 1.734 6.274 3.419 14.39 3.419h.384c7.372 0 11.595-1.053 13.917-2.413 1.125-.66 1.773-1.374 2.152-2.061.382-.692.555-1.474.555-2.358 0-1.198-.154-2.024-.467-2.655-.292-.59-.809-1.182-1.867-1.753-2.277-1.229-6.613-2.138-14.791-2.619l-.014-.001-15.917-1.151-.017-.001c-18.987-1.068-31.607-5.148-39.511-11.395-8.013-6.333-10.936-14.695-10.936-23.625v-1.152c0-9.423 3.036-18.293 12.602-24.68 9.379-6.26 24.795-9.96 49.11-9.96h4.8c27.307 0 43.385 4.52 52.664 11.332 9.446 6.936 11.544 16.01 11.544 24.076v2.384h-48.854l-.392-1.491c-.471-1.789-.962-3.53-2.892-4.983-2.014-1.514-5.912-2.934-13.798-2.934h-.768c-7.136 0-11.237.824-13.498 2.005-1.083.565-1.679 1.18-2.023 1.775-.349.603-.527 1.339-.527 2.284 0 1.048.193 1.85.562 2.5.364.642.985 1.286 2.09 1.887 2.305 1.254 6.418 2.16 13.472 2.447h.005l15.545.575zm-15.626 1.423c-14.208-.576-18.048-3.648-18.048-8.832 0-4.8 3.648-8.064 18.048-8.064h.768c16.128 0 17.664 5.76 18.624 9.408h45.312v-.384c0-.536-.01-1.075-.03-1.616-.576-14.98-9.737-31.792-62.178-31.792h-4.8c-48.384 0-59.712 14.784-59.712 32.64v1.152c0 16.896 10.944 30.912 48.576 33.024l15.936 1.152c16.32.96 19.008 3.648 19.008 9.024 0 4.608-3.648 8.832-18.624 8.832h-.384c-16.704 0-18.624-6.912-19.2-10.176h-46.656v.768c0 .393.006.804.02 1.232.373 11.283 6.479 34.096 61.42 34.096h5.184c55.296 0 63.36-18.432 63.36-36.096v-1.728c0-18.24-10.56-30.528-51.072-32.064l-15.552-.576zm78.655-6.992c.55-12.831 7.704-34.48 60.25-34.48h6.143c55.873 0 60.097 21.12 60.097 36.48v34.176c0 5.184.96 7.488 6.911 7.488h4.992V148h-35.328c-9.732 0-14.757-6.226-17.236-11.925a27.942 27.942 0 01-.811-2.091 47.47 47.47 0 01-1.526 1.657c-5.164 5.34-16.656 14.471-39.755 14.471h-3.263c-29.76 0-43.2-15.168-43.2-34.176v-.768c0-19.392 11.52-29.568 48.96-32.64l29.76-2.304c5.952-.576 7.871-2.496 7.871-6.336v-.192c0-4.8-2.112-9.408-19.967-9.408h-.577c-17.855 0-19.584 7.104-19.584 10.752h-43.776v-.192c0-.58.012-1.183.039-1.808zm75.801 5.193l-29.722 2.301h-.009c-18.793 1.543-31.492 4.884-39.512 10.562-8.223 5.82-11.284 13.909-11.284 24.072v.768c0 9.997 3.549 19.123 11.126 25.724 7.549 6.577 18.871 10.452 34.074 10.452h3.263c22.964 0 34.913-8.819 40.603-14.483 2.787 5.917 8.321 12.371 18.725 12.371h37.328v-35.296h-6.992c-2.83 0-3.741-.571-4.129-1.053-.493-.613-.782-1.797-.782-4.435V75.04c0-7.842-1.069-17.705-9.762-25.49-8.595-7.697-24.237-12.99-52.335-12.99h-6.143c-27.785 0-43.449 5.994-52.161 13.99-8.767 8.048-10.128 17.78-10.128 24.298v2.192h47.776v-2c0-1.483.333-3.495 2.381-5.21 2.142-1.795 6.478-3.542 15.203-3.542h.577c8.865 0 13.358 1.165 15.608 2.593 1.061.673 1.605 1.395 1.914 2.111.325.754.445 1.635.445 2.704v.192c0 1.575-.378 2.344-.993 2.863-.744.627-2.197 1.202-5.053 1.48l-.018.002zm-30.149 42.137c2.171 1.519 5.783 2.59 11.333 2.59 18.579 0 24.88-11.297 24.88-18.352v-4.179c-4.42 1.004-11.627 2.398-19.174 3.656-8.482 1.446-13.576 2.75-16.549 4.387-1.431.788-2.25 1.592-2.735 2.424-.485.832-.741 1.871-.741 3.312v.384c0 2.365.914 4.327 2.986 5.778zm16.71-18.258c-16.896 2.88-21.696 5.376-21.696 12.096v.384c0 5.952 4.8 10.368 16.319 10.368 19.585 0 26.88-12.096 26.88-20.352v-6.72a71.2 71.2 0 01-2 .489c-4.294.993-11.692 2.433-19.503 3.735zm-415.685-8.064c0-11.328-6.528-24.96-26.496-24.96h-1.92c-20.928 0-26.304 14.208-26.304 24.96v.576c0 10.176 5.568 25.152 26.304 25.152h1.92c19.968 0 26.496-14.016 26.496-25.152v-.576z" fill="url(#paint0_radial_16_13)"/><defs><radialGradient id="paint0_radial_16_13" cx="0" cy="0" r="1" gradientUnits="userSpaceOnUse" gradientTransform="matrix(0 130.5 -504.5 0 492.5 74.5)"><stop stop-color="#fff" stop-opacity=".5"/><stop offset="1" stop-color="#fff" stop-opacity=".1"/></radialGradient></defs></svg>