<svg width="1346" height="190" fill="none" xmlns="http://www.w3.org/2000/svg"><path fill-rule="evenodd" clip-rule="evenodd" d="M96.024 102.8h49.504v2c0 8.372-2.142 20.471-11.767 30.475-9.642 10.022-26.47 17.605-55.129 17.605h-9.408c-29.023 0-46.357-8.734-56.388-20.528C2.86 120.62.409 106.208.409 95.392v-2.688c0-10.73 2.505-24.908 12.489-36.422C22.93 44.71 40.211 36.176 69.032 36.176h8.256c29.5 0 46.655 7.474 56.422 17.242 9.764 9.764 11.818 21.49 11.818 29.302v2.192H96.364l-.306-1.631c-.244-1.305-1.127-4.612-4.142-7.585-2.972-2.93-8.243-5.76-17.7-5.76h-1.728c-9.183 0-14.743 3.151-18.071 7.476-3.4 4.416-4.697 10.352-4.697 16.252v.192c0 5.967 1.43 12.213 4.973 16.916 3.476 4.613 9.147 7.964 18.179 7.964H74.6c9.517 0 14.812-3.046 17.738-6.181 3.004-3.219 3.686-6.711 3.686-7.755v-2zm2-19.888c-.576-3.072-4.032-14.976-23.808-14.976h-1.728c-19.392 0-24.768 13.44-24.768 25.728v.192c0 12.48 5.952 26.88 25.152 26.88H74.6c19.968 0 23.424-12.864 23.424-15.936h45.504c0 .645-.013 1.313-.042 2-.696 16.477-10.481 44.08-64.854 44.08h-9.408c-57.216 0-66.816-34.368-66.816-55.488v-2.688c0-20.928 9.792-54.528 66.624-54.528h8.256c56.102 0 65.553 27.316 66.202 42.736.026.623.038 1.226.038 1.808v.192H98.024zM203.71.656V150h-47.584V.656h47.584zm-45.584 2h43.584V148h-43.584V2.656zm199.532 36.4V150h-47.2v-13.637c-7.065 6.959-21.133 16.325-41.968 16.325h-1.92c-16.203 0-27.987-5.3-35.715-13.36-7.703-8.032-11.213-18.633-11.213-28.96V39.056h47.584v56.528c0 5.534 1.452 10.519 4.651 14.099 3.162 3.539 8.277 5.981 16.197 5.981 7.493 0 12.935-2.513 16.514-6.348 3.601-3.86 5.486-9.245 5.486-15.268V39.056h47.584zm-47.2 94.433a31.043 31.043 0 002-2.385V148h43.2V41.056h-43.584v52.992c0 12.864-8.064 23.616-24 23.616-16.704 0-22.848-10.368-22.848-22.08V41.056h-43.584v69.312c0 19.776 13.44 40.32 44.928 40.32h1.92c21.741 0 35.819-10.518 41.968-17.199zM415.286 148h-39.36V2.656h43.584V53.92a34.75 34.75 0 012-1.841c5.934-5.065 18.988-13.135 41.008-13.135h2.304c40.896 0 54.528 27.264 54.528 53.376v3.072c0 24.576-13.248 54.72-56.256 54.72h-2.304c-23.021 0-35.431-9.05-41.028-14.209a53.826 53.826 0 01-1.596-1.535 41.82 41.82 0 00-.678 2.138c-1.098 3.799-1.718 7.782-2.202 11.494zm3.853-9.965c-.888 3.349-1.43 6.855-1.87 10.224l-.227 1.741h-43.116V.656h47.584v48.837c6.724-5.299 19.899-12.549 41.008-12.549h2.304c20.928 0 35.163 6.999 44.127 17.605 8.915 10.546 12.401 24.401 12.401 37.771v3.072c0 12.607-3.393 26.781-12.453 37.843-9.117 11.133-23.783 18.877-45.803 18.877h-2.304c-22.729 0-35.493-8.62-41.651-14.077zm47.922-28.249c3.555-4.558 4.785-10.362 4.785-15.162v-.768c0-4.797-1.229-10.498-4.773-14.955-3.478-4.374-9.391-7.813-19.339-7.813h-1.728c-9.776 0-15.907 3.311-19.625 7.653-3.77 4.402-5.255 10.093-5.255 15.115v.768c0 5.126 1.489 10.917 5.265 15.39 3.721 4.41 9.849 7.762 19.615 7.762h1.728c9.929 0 15.841-3.52 19.327-7.99zm254.525-70.73v96.848c0 14.944-4.039 28.438-14.795 38.156-10.715 9.681-27.752 15.3-53.06 15.3h-6.145c-29.661 0-46.485-5.688-55.91-13.361-9.534-7.761-11.178-17.278-11.178-23.967v-2.768h50.606l.493 1.282c.323.84 1.012 2.197 3.48 3.411 2.587 1.273 7.183 2.411 15.389 2.411h1.92c8.433 0 13.852-2.084 17.166-5.273 3.301-3.177 4.834-7.761 4.834-13.463v-2.966c-5.979 4.895-17.589 11.686-38.511 11.686h-2.688c-22.041 0-36.839-6.923-46.103-17.222-9.226-10.256-12.73-23.6-12.73-36.042v-3.264c0-12.934 3.703-26.186 12.911-36.224 9.241-10.075 23.793-16.656 44.962-16.656h2.112c13.105 0 22.675 2.3 29.601 5.115 4.476 1.82 7.815 3.842 10.255 5.549v-8.552h47.391zm-45.391 12.56a79.68 79.68 0 00-2-1.543c-5.619-4.166-17.256-11.129-39.856-11.129h-2.112c-41.472 0-55.873 25.728-55.873 50.88v3.264c0 24.192 13.633 51.264 56.833 51.264h2.688c21.976 0 33.27-7.652 38.511-12.314a45.058 45.058 0 002-1.894v7.488c0 12.096-6.527 20.736-24 20.736h-1.92c-16.703 0-19.776-4.608-20.735-7.104h-47.233v.768c0 .401.007.812.02 1.232.422 12.851 7.99 34.096 65.068 34.096h6.145c50.112 0 65.855-22.272 65.855-51.456V41.056h-43.391v10.56zm-6.929 25.874c-3.732-3.968-9.839-6.978-19.375-6.978h-1.729c-10.145 0-16.22 3.03-19.783 6.953-3.601 3.965-4.905 9.139-4.905 13.895v.384c0 4.629 1.384 9.866 5.052 13.923 3.627 4.01 9.713 7.117 19.636 7.117h1.921c9.545 0 15.6-2.968 19.278-6.882 3.712-3.949 5.217-9.088 5.217-13.774v-.768c0-4.675-1.546-9.865-5.312-13.87zm201.436 54.645c-10.033 11.802-28.162 20.745-60.299 20.745h-6.144c-31.198 0-49.349-8.905-59.657-20.674-10.264-11.719-12.423-25.911-12.423-35.854v-2.688c0-9.652 2.11-24.069 12.306-36.093 10.25-12.09 28.357-21.395 59.582-21.395h6.528c32.255 0 50.342 9.292 60.296 21.393 9.896 12.031 11.4 26.425 11.4 35.903v3.072c0 9.681-1.604 23.846-11.589 35.591zm-84.517-21.831c3.501 4.719 9.58 8.432 20.186 8.432h1.728c10.19 0 16.292-3.74 19.909-8.519 3.688-4.874 4.971-11.073 4.971-16.169 0-5.395-1.288-11.426-4.947-16.065-3.592-4.554-9.688-8.047-19.933-8.047h-1.728c-10.652 0-16.727 3.507-20.208 8.028-3.556 4.619-4.672 10.637-4.672 16.084 0 5.247 1.113 11.431 4.694 16.256zm248.825-71.248v96.848c0 14.944-4.04 28.438-14.79 38.156-10.72 9.681-27.756 15.3-53.064 15.3h-6.145c-29.661 0-46.485-5.688-55.91-13.361-9.534-7.761-11.178-17.278-11.178-23.967v-2.768h50.606l.493 1.282c.323.84 1.012 2.197 3.48 3.411 2.587 1.273 7.183 2.411 15.389 2.411h1.921c8.432 0 13.851-2.084 17.165-5.273 3.301-3.177 4.835-7.761 4.835-13.463v-2.966c-5.98 4.895-17.59 11.686-38.513 11.686h-2.687c-22.041 0-36.839-6.923-46.103-17.222-9.226-10.256-12.73-23.6-12.73-36.042v-3.264c0-12.934 3.703-26.186 12.911-36.224 9.241-10.075 23.793-16.656 44.961-16.656h2.112c13.106 0 22.676 2.3 29.602 5.115 4.476 1.82 7.815 3.842 10.255 5.549v-8.552h47.39zm-45.39 12.56a79.68 79.68 0 00-2-1.543c-5.619-4.166-17.256-11.129-39.857-11.129h-2.112c-41.471 0-55.872 25.728-55.872 50.88v3.264c0 24.192 13.632 51.264 56.833 51.264h2.687c21.977 0 33.271-7.652 38.513-12.314a46.201 46.201 0 002-1.894v7.488c0 12.096-6.528 20.736-24 20.736h-1.921c-16.703 0-19.776-4.608-20.735-7.104h-47.233v.768c0 .401.007.812.02 1.232.422 12.851 7.99 34.096 65.068 34.096h6.145c50.114 0 65.854-22.272 65.854-51.456V41.056h-43.39v10.56zm-6.929 25.874c-3.732-3.968-9.839-6.978-19.376-6.978h-1.728c-10.145 0-16.22 3.03-19.783 6.953-3.601 3.965-4.905 9.139-4.905 13.895v.384c0 4.629 1.384 9.866 5.052 13.923 3.627 4.01 9.713 7.117 19.636 7.117h1.921c9.545 0 15.6-2.968 19.278-6.882 3.712-3.949 5.217-9.088 5.217-13.774v-.768c0-4.675-1.546-9.865-5.312-13.87zm201.439 54.645c-10.04 11.802-28.16 20.745-60.3 20.745h-6.15c-31.19 0-49.35-8.905-59.65-20.674-10.27-11.719-12.43-25.911-12.43-35.854v-2.688c0-9.652 2.11-24.069 12.31-36.093 10.25-12.09 28.36-21.395 59.58-21.395h6.53c32.25 0 50.34 9.292 60.3 21.393 9.89 12.031 11.4 26.425 11.4 35.903v3.072c0 9.681-1.61 23.846-11.59 35.591zm-84.52-21.831c3.5 4.719 9.58 8.432 20.19 8.432h1.72c10.19 0 16.3-3.74 19.91-8.519 3.69-4.874 4.97-11.073 4.97-16.169 0-5.395-1.28-11.426-4.94-16.065-3.59-4.554-9.69-8.047-19.94-8.047h-1.72c-10.66 0-16.73 3.507-20.21 8.028-3.56 4.619-4.67 10.637-4.67 16.084 0 5.247 1.11 11.431 4.69 16.256zM1206.39 150V39.056h47.2v13.839c7.15-6.92 20.96-16.527 42.54-16.527h1.92c16.21 0 28.13 5.35 36 13.446 7.84 8.07 11.51 18.718 11.51 29.066V150h-47.59V93.472c0-5.505-1.53-10.487-4.84-14.075-3.29-3.557-8.56-6.005-16.58-6.005-7.69 0-13.28 2.564-16.96 6.434-3.7 3.89-5.62 9.274-5.62 15.182V150h-47.58zm47.2-94.27c-.78.808-1.44 1.558-2 2.222V41.056h-43.2V148h43.58V95.008c0-12.672 8.26-23.616 24.58-23.616 16.89 0 23.42 10.368 23.42 22.08V148h43.59V78.88c0-19.776-14.02-40.512-45.51-40.512h-1.92c-22.43 0-36.16 10.691-42.54 17.362zm-805.856 64.046c20.928 0 26.112-14.976 26.112-25.152v-.768c0-10.176-5.184-24.768-26.112-24.768h-1.728c-20.544 0-26.88 14.016-26.88 24.768v.768c0 10.944 6.336 25.152 26.88 25.152h1.728zM676.578 91.36c0-10.176-6.719-22.848-26.687-22.848h-1.729c-21.12 0-26.688 12.672-26.688 22.848v.384c0 9.984 5.953 23.04 26.688 23.04h1.921c19.968 0 26.495-12.48 26.495-22.656v-.768zm203.713 5.184c0 19.008-6.336 54.336-69.888 54.336h-6.144c-61.632 0-70.08-35.136-70.08-54.528v-2.688c0-18.816 8.256-55.488 69.888-55.488h6.528c63.744 0 69.696 36.672 69.696 55.296v3.072zm-100.8-2.496c0 10.944 4.608 26.688 26.88 26.688h1.728c21.504 0 26.88-15.936 26.88-26.688 0-11.328-5.376-26.112-26.88-26.112h-1.728c-22.272 0-26.88 14.784-26.88 26.112zm210.512-2.688c0-10.176-6.719-22.848-26.688-22.848h-1.728c-21.12 0-26.688 12.672-26.688 22.848v.384c0 9.984 5.953 23.04 26.688 23.04h1.921c19.967 0 26.495-12.48 26.495-22.656v-.768zm203.717 5.184c0 19.008-6.34 54.336-69.89 54.336h-6.15c-61.63 0-70.08-35.136-70.08-54.528v-2.688c0-18.816 8.26-55.488 69.89-55.488h6.53c63.74 0 69.7 36.672 69.7 55.296v3.072zm-100.8-2.496c0 10.944 4.6 26.688 26.88 26.688h1.72c21.51 0 26.88-15.936 26.88-26.688 0-11.328-5.37-26.112-26.88-26.112h-1.72c-22.28 0-26.88 14.784-26.88 26.112z" fill="url(#paint0_radial_6_9)"/><defs><radialGradient id="paint0_radial_6_9" cx="0" cy="0" r="1" gradientUnits="userSpaceOnUse" gradientTransform="matrix(0 130.5 -729 0 722 74.5)"><stop stop-color="#fff" stop-opacity=".3"/><stop offset="1" stop-color="#fff" stop-opacity=".1"/></radialGradient></defs></svg>