<svg width="1346" height="190" viewBox="0 0 1346 190" fill="none" xmlns="http://www.w3.org/2000/svg">
<path fill-rule="evenodd" clip-rule="evenodd" d="M96.024 102.8H145.528V104.8C145.528 113.172 143.386 125.271 133.761 135.275C124.119 145.297 107.291 152.88 78.632 152.88H69.224C40.2008 152.88 22.867 144.146 12.8365 132.352C2.85988 120.62 0.40802 106.208 0.40802 95.392V92.704C0.40802 81.9731 2.91293 67.796 12.897 56.2818C22.93 44.711 40.2109 36.176 69.032 36.176H77.288C106.788 36.176 123.943 43.6505 133.71 53.4178C143.474 63.1816 145.528 74.9089 145.528 82.72V84.912H96.3642L96.0583 83.2806C95.8136 81.9756 94.9308 78.6686 91.9159 75.6962C88.9441 72.7663 83.6726 69.936 74.216 69.936H72.488C63.3048 69.936 57.7451 73.0874 54.417 77.4118C51.0179 81.8285 49.72 87.7636 49.72 93.664V93.856C49.72 99.8234 51.1496 106.069 54.6933 110.772C58.1688 115.385 63.84 118.736 72.872 118.736H74.6C84.1171 118.736 89.412 115.69 92.3379 112.555C95.3424 109.336 96.024 105.844 96.024 104.8V102.8ZM98.024 82.912C97.448 79.84 93.992 67.936 74.216 67.936H72.488C53.096 67.936 47.72 81.376 47.72 93.664V93.856C47.72 106.336 53.672 120.736 72.872 120.736H74.6C94.568 120.736 98.024 107.872 98.024 104.8H143.528C143.528 105.445 143.515 106.113 143.486 106.8C142.79 123.277 133.005 150.88 78.632 150.88H69.224C12.008 150.88 2.40802 116.512 2.40802 95.392V92.704C2.40802 71.776 12.2 38.176 69.032 38.176H77.288C133.39 38.176 142.841 65.4923 143.49 80.912C143.516 81.535 143.528 82.1385 143.528 82.72V82.912H98.024ZM203.71 0.656006V150H156.126V0.656006H203.71ZM158.126 2.65601H201.71V148H158.126V2.65601ZM357.658 39.056V150H310.458V136.363C303.393 143.322 289.325 152.688 268.49 152.688H266.57C250.367 152.688 238.583 147.388 230.855 139.328C223.152 131.296 219.642 120.695 219.642 110.368V39.056H267.226V95.584C267.226 101.118 268.678 106.103 271.877 109.683C275.039 113.222 280.154 115.664 288.074 115.664C295.567 115.664 301.009 113.151 304.588 109.316C308.189 105.456 310.074 100.071 310.074 94.048V39.056H357.658ZM310.458 133.489C311.26 132.618 311.927 131.813 312.458 131.104V148H355.658V41.056H312.074V94.048C312.074 106.912 304.01 117.664 288.074 117.664C271.37 117.664 265.226 107.296 265.226 95.584V41.056H221.642V110.368C221.642 130.144 235.082 150.688 266.57 150.688H268.49C290.231 150.688 304.309 140.17 310.458 133.489ZM415.286 148H375.926V2.65601H419.51V53.92C420.053 53.3773 420.718 52.7547 421.51 52.0786C427.444 47.0137 440.498 38.944 462.518 38.944H464.822C505.718 38.944 519.35 66.208 519.35 92.32V95.392C519.35 119.968 506.102 150.112 463.094 150.112H460.79C437.769 150.112 425.359 141.062 419.762 135.903C419.15 135.339 418.62 134.822 418.166 134.368C417.921 135.072 417.696 135.786 417.488 136.506C416.39 140.305 415.77 144.288 415.286 148ZM419.139 138.035C418.251 141.384 417.709 144.89 417.269 148.259L417.042 150H373.926V0.656006H421.51V49.4932C428.234 44.1943 441.409 36.944 462.518 36.944H464.822C485.75 36.944 499.985 43.9427 508.949 54.5489C517.864 65.0951 521.35 78.9503 521.35 92.32V95.392C521.35 107.999 517.957 122.173 508.897 133.235C499.78 144.368 485.114 152.112 463.094 152.112H460.79C438.061 152.112 425.297 143.492 419.139 138.035ZM467.061 109.786C470.616 105.228 471.846 99.4237 471.846 94.624V93.856C471.846 89.0585 470.617 83.3583 467.073 78.9007C463.595 74.5265 457.682 71.088 447.734 71.088H446.006C436.23 71.088 430.099 74.3992 426.381 78.741C422.611 83.143 421.126 88.8342 421.126 93.856V94.624C421.126 99.7498 422.615 105.541 426.391 110.014C430.112 114.424 436.24 117.776 446.006 117.776H447.734C457.663 117.776 463.575 114.256 467.061 109.786ZM721.586 39.056V135.904C721.586 150.848 717.547 164.342 706.791 174.06C696.076 183.741 679.039 189.36 653.731 189.36H647.586C617.925 189.36 601.101 183.672 591.676 175.999C582.142 168.238 580.498 158.721 580.498 152.032V149.264H631.104L631.597 150.546C631.92 151.386 632.609 152.743 635.077 153.957C637.664 155.23 642.26 156.368 650.466 156.368H652.386C660.819 156.368 666.238 154.284 669.552 151.095C672.853 147.918 674.386 143.334 674.386 137.632V134.666C668.407 139.561 656.797 146.352 635.875 146.352H633.187C611.146 146.352 596.348 139.429 587.084 129.13C577.858 118.874 574.354 105.53 574.354 93.088V89.824C574.354 76.8904 578.057 63.6383 587.265 53.6001C596.506 43.5254 611.058 36.944 632.227 36.944H634.339C647.444 36.944 657.014 39.244 663.94 42.0592C668.416 43.8786 671.755 45.9011 674.195 47.608V39.056H721.586ZM676.195 51.616C675.634 51.1726 674.972 50.6497 674.195 50.0732C668.576 45.9074 656.939 38.944 634.339 38.944H632.227C590.755 38.944 576.354 64.672 576.354 89.824V93.088C576.354 117.28 589.987 144.352 633.187 144.352H635.875C657.851 144.352 669.145 136.7 674.386 132.038C675.19 131.324 675.851 130.68 676.386 130.144V137.632C676.386 149.728 669.859 158.368 652.386 158.368H650.466C633.763 158.368 630.69 153.76 629.731 151.264H582.498V152.032C582.498 152.433 582.505 152.844 582.518 153.264C582.94 166.115 590.508 187.36 647.586 187.36H653.731C703.843 187.36 719.586 165.088 719.586 135.904V41.056H676.195V51.616ZM669.266 77.4902C665.534 73.5224 659.427 70.512 649.891 70.512H648.162C638.017 70.512 631.942 73.5411 628.379 77.4646C624.778 81.4301 623.474 86.6037 623.474 91.36V91.744C623.474 96.3725 624.858 101.61 628.526 105.667C632.153 109.677 638.239 112.784 648.162 112.784H650.083C659.628 112.784 665.683 109.816 669.361 105.902C673.073 101.953 674.578 96.8145 674.578 92.128V91.36C674.578 86.6854 673.032 81.4949 669.266 77.4902ZM870.702 132.135C860.669 143.937 842.54 152.88 810.403 152.88H804.259C773.061 152.88 754.91 143.975 744.602 132.206C734.338 120.487 732.179 106.295 732.179 96.352V93.664C732.179 84.0119 734.289 69.5951 744.485 57.5706C754.735 45.4819 772.842 36.176 804.067 36.176H810.595C842.85 36.176 860.937 45.4681 870.891 57.5695C880.787 69.6003 882.291 83.9939 882.291 93.472V96.544C882.291 106.225 880.687 120.39 870.702 132.135ZM786.185 110.304C789.686 115.023 795.765 118.736 806.371 118.736H808.099C818.289 118.736 824.391 114.996 828.008 110.217C831.696 105.343 832.979 99.144 832.979 94.048C832.979 88.6526 831.691 82.622 828.032 77.9826C824.44 73.4287 818.344 69.936 808.099 69.936H806.371C795.719 69.936 789.644 73.4429 786.163 77.9642C782.607 82.5829 781.491 88.6014 781.491 94.048C781.491 99.2946 782.604 105.479 786.185 110.304ZM1035.01 39.056V135.904C1035.01 150.848 1030.97 164.342 1020.22 174.06C1009.5 183.741 992.464 189.36 967.156 189.36H961.011C931.35 189.36 914.526 183.672 905.101 175.999C895.567 168.238 893.923 158.721 893.923 152.032V149.264H944.529L945.022 150.546C945.345 151.386 946.034 152.743 948.502 153.957C951.089 155.23 955.685 156.368 963.891 156.368H965.812C974.244 156.368 979.663 154.284 982.977 151.095C986.278 147.918 987.812 143.334 987.812 137.632V134.666C981.832 139.561 970.222 146.352 949.299 146.352H946.612C924.571 146.352 909.773 139.429 900.509 129.13C891.283 118.874 887.779 105.53 887.779 93.088V89.824C887.779 76.8904 891.482 63.6383 900.69 53.6001C909.931 43.5254 924.483 36.944 945.651 36.944H947.763C960.869 36.944 970.439 39.244 977.365 42.0592C981.841 43.8786 985.18 45.9011 987.62 47.608V39.056H1035.01ZM989.62 51.616C989.059 51.1726 988.397 50.6497 987.62 50.0732C982.001 45.9074 970.364 38.944 947.763 38.944H945.651C904.18 38.944 889.779 64.672 889.779 89.824V93.088C889.779 117.28 903.411 144.352 946.612 144.352H949.299C971.276 144.352 982.57 136.7 987.812 132.038C988.615 131.324 989.276 130.68 989.812 130.144V137.632C989.812 149.728 983.284 158.368 965.812 158.368H963.891C947.188 158.368 944.115 153.76 943.156 151.264H895.923V152.032C895.923 152.433 895.93 152.844 895.943 153.264C896.365 166.115 903.933 187.36 961.011 187.36H967.156C1017.27 187.36 1033.01 165.088 1033.01 135.904V41.056H989.62V51.616ZM982.691 77.4902C978.959 73.5224 972.852 70.512 963.315 70.512H961.587C951.442 70.512 945.367 73.5411 941.804 77.4646C938.203 81.4301 936.899 86.6037 936.899 91.36V91.744C936.899 96.3725 938.283 101.61 941.951 105.667C945.578 109.677 951.664 112.784 961.587 112.784H963.508C973.053 112.784 979.108 109.816 982.786 105.902C986.498 101.953 988.003 96.8145 988.003 92.128V91.36C988.003 86.6854 986.457 81.4949 982.691 77.4902ZM1184.13 132.135C1174.09 143.937 1155.97 152.88 1123.83 152.88H1117.68C1086.49 152.88 1068.33 143.975 1058.03 132.206C1047.76 120.487 1045.6 106.295 1045.6 96.352V93.664C1045.6 84.0119 1047.71 69.5951 1057.91 57.5706C1068.16 45.4819 1086.27 36.176 1117.49 36.176H1124.02C1156.27 36.176 1174.36 45.4681 1184.32 57.5695C1194.21 69.6003 1195.72 83.9939 1195.72 93.472V96.544C1195.72 106.225 1194.11 120.39 1184.13 132.135ZM1099.61 110.304C1103.11 115.023 1109.19 118.736 1119.8 118.736H1121.52C1131.71 118.736 1137.82 114.996 1141.43 110.217C1145.12 105.343 1146.4 99.144 1146.4 94.048C1146.4 88.6526 1145.12 82.622 1141.46 77.9826C1137.87 73.4287 1131.77 69.936 1121.52 69.936H1119.8C1109.14 69.936 1103.07 73.4429 1099.59 77.9642C1096.03 82.5829 1094.92 88.6014 1094.92 94.048C1094.92 99.2946 1096.03 105.479 1099.61 110.304ZM1206.39 150V39.056H1253.59V52.8948C1260.74 45.9753 1274.55 36.368 1296.13 36.368H1298.05C1314.26 36.368 1326.18 41.7185 1334.05 49.8142C1341.89 57.8846 1345.56 68.5318 1345.56 78.88V150H1297.97V93.472C1297.97 87.9668 1296.44 82.9848 1293.13 79.3966C1289.84 75.8398 1284.57 73.392 1276.55 73.392C1268.86 73.392 1263.27 75.9561 1259.59 79.8255C1255.89 83.7164 1253.97 89.0996 1253.97 95.008V150H1206.39ZM1253.59 55.7299C1252.81 56.5384 1252.15 57.2878 1251.59 57.952V41.056H1208.39V148H1251.97V95.008C1251.97 82.336 1260.23 71.392 1276.55 71.392C1293.44 71.392 1299.97 81.76 1299.97 93.472V148H1343.56V78.88C1343.56 59.104 1329.54 38.368 1298.05 38.368H1296.13C1273.7 38.368 1259.97 49.0593 1253.59 55.7299ZM447.734 119.776C468.662 119.776 473.846 104.8 473.846 94.624V93.856C473.846 83.68 468.662 69.088 447.734 69.088H446.006C425.462 69.088 419.126 83.104 419.126 93.856V94.624C419.126 105.568 425.462 119.776 446.006 119.776H447.734ZM676.578 91.36C676.578 81.184 669.859 68.512 649.891 68.512H648.162C627.042 68.512 621.474 81.184 621.474 91.36V91.744C621.474 101.728 627.427 114.784 648.162 114.784H650.083C670.051 114.784 676.578 102.304 676.578 92.128V91.36ZM880.291 96.544C880.291 115.552 873.955 150.88 810.403 150.88H804.259C742.627 150.88 734.179 115.744 734.179 96.352V93.664C734.179 74.848 742.435 38.176 804.067 38.176H810.595C874.339 38.176 880.291 74.848 880.291 93.472V96.544ZM779.491 94.048C779.491 104.992 784.099 120.736 806.371 120.736H808.099C829.603 120.736 834.979 104.8 834.979 94.048C834.979 82.72 829.603 67.936 808.099 67.936H806.371C784.099 67.936 779.491 82.72 779.491 94.048ZM990.003 91.36C990.003 81.184 983.284 68.512 963.315 68.512H961.587C940.467 68.512 934.899 81.184 934.899 91.36V91.744C934.899 101.728 940.852 114.784 961.587 114.784H963.508C983.475 114.784 990.003 102.304 990.003 92.128V91.36ZM1193.72 96.544C1193.72 115.552 1187.38 150.88 1123.83 150.88H1117.68C1056.05 150.88 1047.6 115.744 1047.6 96.352V93.664C1047.6 74.848 1055.86 38.176 1117.49 38.176H1124.02C1187.76 38.176 1193.72 74.848 1193.72 93.472V96.544ZM1092.92 94.048C1092.92 104.992 1097.52 120.736 1119.8 120.736H1121.52C1143.03 120.736 1148.4 104.8 1148.4 94.048C1148.4 82.72 1143.03 67.936 1121.52 67.936H1119.8C1097.52 67.936 1092.92 82.72 1092.92 94.048Z" fill="url(#paint0_radial_6_9)"/>
<defs>
<radialGradient id="paint0_radial_6_9" cx="0" cy="0" r="1" gradientUnits="userSpaceOnUse" gradientTransform="translate(722 74.5) rotate(90) scale(130.5 729)">
<stop stop-color="white" stop-opacity="0.3"/>
<stop offset="1" stop-color="white" stop-opacity="0.1"/>
</radialGradient>
</defs>
</svg>
