<svg width="983" height="153" viewBox="0 0 983 153" fill="none" xmlns="http://www.w3.org/2000/svg">
<path fill-rule="evenodd" clip-rule="evenodd" d="M48.56 150H0.976013V39.056H48.176V52.731C54.8652 45.77 67.7655 36.368 88.032 36.368H89.376C109.548 36.368 122.18 45.2093 129.064 56.4052C137.913 46.5164 152.851 36.368 174.624 36.368H176.16C193.534 36.368 205.359 42.1643 212.809 50.7885C220.213 59.3579 223.088 70.4769 223.088 80.8V150H175.504V92.704C175.504 87.6405 174.19 82.8265 171.204 79.3108C168.266 75.8526 163.492 73.392 156 73.392C148.939 73.392 143.947 75.9172 140.693 79.7037C137.4 83.5349 135.728 88.8443 135.728 94.624V150H88.336V92.704C88.336 87.626 87.063 82.8149 84.1032 79.3054C81.1946 75.8567 76.4272 73.392 68.832 73.392C61.7363 73.392 56.7512 75.7974 53.5137 79.5004C50.2401 83.2448 48.56 88.5396 48.56 94.624V150ZM130.123 58.2265C129.641 58.777 129.179 59.3262 128.736 59.872C128.405 59.2409 128.056 58.6154 127.689 57.9967C121.243 47.1332 109.176 38.368 89.376 38.368H88.032C66.8693 38.368 54.0666 48.9674 48.176 55.6859C47.3863 56.5867 46.7208 57.4177 46.176 58.144V41.056H2.97601V148H46.56V94.624C46.56 81.76 53.664 71.392 68.832 71.392C84.96 71.392 90.336 81.952 90.336 92.704V148H133.728V94.624C133.728 82.336 140.832 71.392 156 71.392C171.936 71.392 177.504 81.952 177.504 92.704V148H221.088V80.8C221.088 60.832 209.952 38.368 176.16 38.368H174.624C153.183 38.368 138.621 48.5134 130.123 58.2265ZM331.987 111.824H380.875L380.722 113.967C380.314 119.686 378.159 129.481 368.436 137.807C358.75 146.103 341.843 152.688 312.487 152.688H304.616C276.14 152.688 258.263 145.053 247.521 133.934C236.796 122.832 233.496 108.577 233.496 95.968V93.28C233.496 80.6921 236.641 66.4472 246.967 55.3421C257.321 44.2067 274.585 36.56 302.12 36.56H310.568C340.073 36.56 357.877 44.2322 368.239 56.186C378.554 68.0868 381.112 83.8072 381.112 99.04V104.88H282.704C283.863 109.431 285.964 113.134 289.489 115.837C293.64 119.02 300.055 121.04 309.991 121.04C319.558 121.04 324.708 119.255 327.517 117.465C330.015 115.874 330.823 114.196 331.305 113.197C331.35 113.101 331.393 113.012 331.435 112.93L331.987 111.824ZM280.645 104.88C280.489 104.226 280.352 103.559 280.232 102.88H379.112V99.04C379.112 68.896 368.935 38.56 310.568 38.56H302.12C247.784 38.56 235.496 68.704 235.496 93.28V95.968C235.496 120.544 248.359 150.688 304.616 150.688H312.487C367.317 150.688 376.952 127.494 378.522 115.824C378.618 115.112 378.683 114.442 378.728 113.824H333.224C333.185 113.902 333.143 113.988 333.097 114.083C332.018 116.323 328.782 123.04 309.991 123.04C290.8 123.04 283.218 115.699 280.645 104.88ZM326.444 71.6847C323.19 68.7824 317.326 66.48 306.919 66.48C298.416 66.48 292.904 68.1663 289.3 70.8583C286.331 73.0765 284.465 76.1232 283.35 79.952H330.542C330.213 76.954 329.07 74.0263 326.444 71.6847ZM332.552 79.952C331.812 72.4118 326.488 64.48 306.919 64.48C290.576 64.48 283.809 70.5278 281.274 79.952C281.099 80.6029 280.944 81.2698 280.807 81.952H332.647C332.647 81.2924 332.618 80.6237 332.552 79.952ZM486.115 0.656006H533.699V150H486.115V139.545C480.017 144.823 467.852 152.112 447.411 152.112H445.107C424.183 152.112 409.446 145.118 399.961 134.526C390.514 123.977 386.467 110.071 386.467 96.544V92.704C386.467 79.3932 390.261 65.4433 399.535 54.7908C408.853 44.0872 423.504 36.944 444.723 36.944H447.027C468.046 36.944 479.844 43.1863 486.115 47.4875V0.656006ZM488.115 51.424L488.057 51.3797C487.501 50.9574 486.857 50.468 486.115 49.9323C480.399 45.8071 468.86 38.944 447.027 38.944H444.723C403.251 38.944 388.467 66.784 388.467 92.704V96.544C388.467 122.848 404.211 150.112 445.107 150.112H447.411C468.933 150.112 480.89 141.833 486.115 136.844C486.95 136.047 487.612 135.334 488.115 134.752V148H531.699V2.65601H488.115V51.424ZM481.027 78.6203C477.333 74.3036 471.299 71.088 461.811 71.088H459.891C449.924 71.088 443.964 74.4445 440.446 78.7937C436.865 83.2209 435.587 88.9597 435.587 94.048V94.624C435.587 99.3975 436.901 105.204 440.529 109.772C444.092 114.258 450.063 117.776 459.891 117.776H461.811C471.28 117.776 477.316 114.478 481.018 110.087C484.773 105.633 486.307 99.8393 486.307 94.624V94.048C486.307 88.733 484.771 82.9955 481.027 78.6203ZM687.683 39.056V150H640.483V136.363C633.418 143.322 619.35 152.688 598.515 152.688H596.595C580.392 152.688 568.608 147.388 560.88 139.328C553.177 131.296 549.667 120.695 549.667 110.368V39.056H597.251V95.584C597.251 101.118 598.703 106.103 601.902 109.683C605.064 113.222 610.179 115.664 618.099 115.664C625.592 115.664 631.034 113.151 634.613 109.316C638.214 105.456 640.099 100.071 640.099 94.048V39.056H687.683ZM640.483 133.489C641.285 132.618 641.952 131.813 642.483 131.104V148H685.683V41.056H642.099V94.048C642.099 106.912 634.035 117.664 618.099 117.664C601.395 117.664 595.251 107.296 595.251 95.584V41.056H551.667V110.368C551.667 130.144 565.107 150.688 596.595 150.688H598.515C620.256 150.688 634.334 140.17 640.483 133.489ZM778.601 78.6094L778.603 78.6095C798.97 79.3817 812.229 82.8562 820.423 88.7527C828.796 94.7777 831.599 103.113 831.599 112.672V114.4C831.599 123.556 829.49 133.317 819.869 140.662C810.409 147.883 794.02 152.496 766.239 152.496H761.055C732.311 152.496 716.363 146.31 707.605 138.344C698.788 130.323 697.615 120.83 697.615 115.168V112.4H747.949L748.241 114.052C748.496 115.499 748.994 117.469 751.081 119.157C753.224 120.891 757.355 122.576 765.471 122.576H765.855C773.227 122.576 777.45 121.523 779.772 120.163C780.897 119.503 781.545 118.789 781.924 118.102C782.306 117.41 782.479 116.628 782.479 115.744C782.479 114.546 782.325 113.72 782.012 113.089C781.72 112.499 781.203 111.907 780.145 111.336C777.868 110.107 773.532 109.198 765.354 108.717L765.34 108.716L749.423 107.565C749.417 107.565 749.412 107.564 749.406 107.564C730.419 106.496 717.799 102.416 709.895 96.1691C701.882 89.8362 698.959 81.4742 698.959 72.544V71.392C698.959 61.9692 701.995 53.0986 711.561 46.7126C720.94 40.4514 736.356 36.752 760.671 36.752H765.471C792.778 36.752 808.856 41.2711 818.135 48.0839C827.581 55.0198 829.679 64.0939 829.679 72.16V74.544H780.825L780.433 73.053C779.962 71.2642 779.471 69.5228 777.541 68.0702C775.527 66.5556 771.629 65.136 763.743 65.136H762.975C755.839 65.136 751.738 65.9599 749.477 67.1409C748.394 67.7064 747.798 68.3204 747.454 68.9158C747.105 69.5185 746.927 70.2546 746.927 71.2C746.927 72.2482 747.12 73.0493 747.489 73.6992C747.853 74.3418 748.474 74.9864 749.579 75.587C751.884 76.8412 755.997 77.7472 763.051 78.0335C763.053 78.0335 763.054 78.0336 763.056 78.0337L778.601 78.6094ZM762.975 80.032C748.767 79.456 744.927 76.384 744.927 71.2C744.927 66.4 748.575 63.136 762.975 63.136H763.743C779.871 63.136 781.407 68.896 782.367 72.544H827.679V72.16C827.679 71.6243 827.669 71.0854 827.649 70.544C827.073 55.5631 817.912 38.752 765.471 38.752H760.671C712.287 38.752 700.959 53.536 700.959 71.392V72.544C700.959 89.44 711.903 103.456 749.535 105.568L765.471 106.72C781.791 107.68 784.479 110.368 784.479 115.744C784.479 120.352 780.831 124.576 765.855 124.576H765.471C748.767 124.576 746.847 117.664 746.271 114.4H699.615V115.168C699.615 115.561 699.621 115.972 699.635 116.4C700.008 127.683 706.114 150.496 761.055 150.496H766.239C821.535 150.496 829.599 132.064 829.599 114.4V112.672C829.599 94.432 819.039 82.144 778.527 80.608L762.975 80.032ZM841.63 73.04C842.18 60.2086 849.334 38.56 901.88 38.56H908.023C963.896 38.56 968.12 59.68 968.12 75.04V109.216C968.12 114.4 969.08 116.704 975.031 116.704H980.023V148H944.695C934.963 148 929.938 141.774 927.459 136.075C927.15 135.365 926.881 134.664 926.648 133.984C926.216 134.475 925.71 135.033 925.122 135.641C919.958 140.981 908.466 150.112 885.367 150.112H882.104C852.344 150.112 838.904 134.944 838.904 115.936V115.168C838.904 95.776 850.424 85.6 887.864 82.528L917.624 80.224C923.576 79.648 925.495 77.728 925.495 73.888V73.696C925.495 68.896 923.383 64.288 905.528 64.288H904.951C887.096 64.288 885.367 71.392 885.367 75.04H841.591V74.848C841.591 74.2686 841.603 73.6647 841.63 73.04ZM917.431 78.2333L887.709 80.534L887.7 80.5347C868.907 82.0767 856.208 85.418 848.188 91.0957C839.965 96.9166 836.904 105.005 836.904 115.168V115.936C836.904 125.933 840.453 135.059 848.03 141.66C855.579 148.237 866.901 152.112 882.104 152.112H885.367C908.331 152.112 920.28 143.293 925.97 137.629C928.757 143.546 934.291 150 944.695 150H982.023V114.704H975.031C972.201 114.704 971.29 114.133 970.902 113.651C970.409 113.038 970.12 111.854 970.12 109.216V75.04C970.12 67.1983 969.051 57.3353 960.358 49.5501C951.763 41.853 936.121 36.56 908.023 36.56H901.88C874.095 36.56 858.431 42.554 849.719 50.5506C840.952 58.5976 839.591 68.3305 839.591 74.848V77.04H887.367V75.04C887.367 73.5566 887.7 71.5449 889.748 69.8291C891.89 68.0347 896.226 66.288 904.951 66.288H905.528C914.393 66.288 918.886 67.4528 921.136 68.8805C922.197 69.5542 922.741 70.2764 923.05 70.9924C923.375 71.7464 923.495 72.6274 923.495 73.696V73.888C923.495 75.4629 923.117 76.2324 922.502 76.751C921.758 77.3781 920.305 77.9533 917.449 78.2315C917.443 78.2321 917.437 78.2327 917.431 78.2333ZM887.282 120.37C889.453 121.889 893.065 122.96 898.615 122.96C917.194 122.96 923.495 111.663 923.495 104.608V100.429C919.075 101.433 911.868 102.827 904.321 104.085C895.839 105.531 890.745 106.835 887.772 108.472C886.341 109.26 885.522 110.064 885.037 110.896C884.552 111.728 884.296 112.767 884.296 114.208V114.592C884.296 116.957 885.21 118.919 887.282 120.37ZM903.992 102.112C887.096 104.992 882.296 107.488 882.296 114.208V114.592C882.296 120.544 887.096 124.96 898.615 124.96C918.2 124.96 925.495 112.864 925.495 104.608V97.888C924.94 98.0343 924.268 98.1985 923.495 98.377C919.201 99.3702 911.803 100.81 903.992 102.112ZM488.307 94.048C488.307 82.72 481.779 69.088 461.811 69.088H459.891C438.963 69.088 433.587 83.296 433.587 94.048V94.624C433.587 104.8 439.155 119.776 459.891 119.776H461.811C481.779 119.776 488.307 105.76 488.307 94.624V94.048Z" fill="url(#paint0_radial_16_13)"/>
<defs>
<radialGradient id="paint0_radial_16_13" cx="0" cy="0" r="1" gradientUnits="userSpaceOnUse" gradientTransform="translate(492.5 74.5) rotate(90) scale(130.5 504.5)">
<stop stop-color="white" stop-opacity="0.5"/>
<stop offset="1" stop-color="white" stop-opacity="0.1"/>
</radialGradient>
</defs>
</svg>
